/* XPM */
static char * Birds1_xpm[] = {
"92 49 2 1",
" 	c None",
".	c #000000",
"                                                                                            ",
"                                                                                            ",
"                                                                                            ",
"                                       .                                                    ",
"                                       .                                                    ",
"                                        .                                                   ",
"                                        ..                                                  ",
"                                         .           .                                      ",
"                                         ...         .                                      ",
"                                           ...........                                      ",
"                                                    ..                                      ",
"                                                    ..                                      ",
"                                                     .                                      ",
"                                                     .                                      ",
"                                                      .         .                           ",
"                                                       ...    ..                            ",
"                                                          ....                              ",
"    .......                                                                                 ",
"   .      ...                                                                               ",
"  .         ..                                                                              ",
" .            .                                                                             ",
".             ..                                                                            ",
"               .                                                                            ",
"               ..                                                                           ",
"                .                                                                           ",
"                . ........                                                                  ",
"                ...      ....                                                               ",
"               ...          ...                                                             ",
"               .              ..                                                            ",
"                               ..                                                           ",
"                                ..                                                          ",
"                                 .                            .......                       ",
"                                 .                           .      ...                     ",
"                                 .                          .         ..                    ",
"                                 .                         .            .                   ",
"                                                          .             ..                  ",
"                                                                         .                  ",
"                                                                         ..                 ",
"                                                                          .                 ",
"                                                                          . ........        ",
"                                                                          ...      ....     ",
"                                                                         ...          ...   ",
"                                                                         .              ..  ",
"                                                                                         .. ",
"                                                                                          ..",
"                                                                                           .",
"                                                                                           .",
"                                                                                           .",
"                                                                                           ."};
