/* XPM */
static char * ElderFisher2_xpm[] = {
"50 161 8 1",
" 	c None",
".	c #1C001C",
"+	c #000000",
"@	c #AAC6E3",
"#	c #E3C6AA",
"$	c #E3FFFF",
"%	c #8EC6C6",
"&	c #AAC68E",
"                         ...+.........            ",
"                        ...+@@@@@+@++...          ",
"                       .+.@@@@@@@@@@@@@..         ",
"                      ..@@@@@@@@@@@@@@@@@.        ",
"                     .@@@@@@@@++@@@@@@@@@+.       ",
"                   ..@@@@@@@@@@@+@@@@@@@+@.       ",
"                  .+@@@@@@@@@@@@@.@@@@@@@@@.      ",
"                  .@@@@@@@..+@@@@+@@@@@@@+@+      ",
"                  +@@@@@@@@@@.@@@+@@@@@@@+@@.     ",
"                 .@@@@@@@@@@@@.@@@@@@@@@@@@@.     ",
"                 .+@@+@@@@@@@@@@@@+@@@@@@@+@.     ",
"                 ..@@@++.+@@@@@@@@+@@@@@@@.@..    ",
"                 ..@@@@@@@+..+@@@@@++@@@@@@@..    ",
"                  ........@@@++@@@@@@@@@@@@@..    ",
"                  ......+...@@@.@@@@@@@@@@@@@.    ",
"                  .#####+#...@@+@@@@@@@@@@@@@.    ",
"                  .####...##..@@@@@@@@@@@@@@@.    ",
"                  ..##.$%$.##.+@@@@@@@@@@@@@@.    ",
"                   .##.%.%.###.@@@@@@@@@@@+@+.    ",
"                   .#..$%$.###.+@.@@@@@@@@+@+.    ",
"                   .+##...#####.@@@@@+@@@@@@.     ",
"                   ..##########.@@+@@+@@@@@@.     ",
"                   ..##########..@+@@@+@@@@@.     ",
"                   ..###########+@.@@@@@@@@@.     ",
"                   .############+@@@@@@+@@@..     ",
"                   .############.@@@+@@@+@@..     ",
"                   .#.###########.@@@@@@@@@.      ",
"                   ...############+@@@@@@@@.      ",
"                     ...###.######.+@@@@@@..      ",
"                       ..#..######...@@@@+..      ",
"                        ...#########...@@...      ",
"                         ..###########...#..      ",
"                         .##############++..      ",
"                         ..#######.#######...     ",
"                          .#####..########.       ",
"                           ....######....#.       ",
"                              .###....&&....      ",
"                              ....&&......&..     ",
"                             ...&&...&&&&&&&..    ",
"                            ..&&&..&&&&&&&&&&.    ",
"                           .&.&..&&&&&&&&&&&&..   ",
"                          .&&...&&&&&&&&&&&&&&.   ",
"                         ..&...&&&&&&..&&&&&&&.   ",
"                         .&&..&&&&&..&..&&&&&&.   ",
"                         ....&&&&&.&.&..&&&&&&..  ",
"                         ...&&&&&..&&&.&.&&&&&&.  ",
"                        ...&&&&&..&&&&&&..&&&&&.  ",
"                        ..&&&&&&.&&&&&&&..&&&&&.  ",
"                        .&&&&&&&.&&&&&&&&.&&&&&.  ",
"                        .&&&&&&&.&&&&&&&&..&&&&.  ",
"                       ..+&&&&&.&&&&&&&&&&.&&&&.  ",
"                       .&&&&&&&.&&&&&&&&&&.&&&&.. ",
"                       .&&.&&&&.&&&&&&&&&&.&&&&&. ",
"                       .+.&&&&..&&&&&&&&&&.&&&&&. ",
"                       .&&&&&&.&&&&&&&&&&&.&&&&&. ",
"                       .&&&&&&.&&&&&&&&&&&..&&&&. ",
"                       &&&&&&&.&&&&&&&&&&&&.&&&&. ",
"                      .+&.&&&&.&&&&&&&&&&&&.&&&&. ",
"                      ...&&&&&.&&&&&&&&&&&&.&&&&. ",
"                      .&&&&&&&&&&&&&&&&&&&&.&&&&. ",
"                      .&&&&&&&&&&&&&&&&&&&&.&&&&. ",
"                     &&.&&&&&&&&&&&&&&&&&&&.&&&&. ",
"                     &&.&&&&&&&&&&&&&&&&&&&.&&&&. ",
"                     ...&&&&&&&&&&&&&&&&&&&.&&&&. ",
"                     .&&&&&&&.&&&&&&&&&&&&&.&&&&. ",
"                     &.&&&&&&.&&&&&&&&&&&&&.&&&&. ",
"                     .+&&&&&&.&&&&&&&&&&&&&.&&&&. ",
"                    ..+&&&&&&.&&&&&&&&&&&&&.&&&&. ",
"                    ...&&&&&&&&&&&&&&&&&&&&.&&&&. ",
"                    ..&&&&&&&.&&&&&&&&&&&&&.&&&&..",
"                    ..&.&&&&&..&&&&&&&&&&&..&&&&&.",
"                    ..&.&&&&&&.&&&&&&&&&&&.&&&&&&.",
"                    ...&&&&&&&.&&&&&&&&&&&.&&&&&&.",
"                    ..&&&&&&&&&&&&&&&&&&&&.&&&&&&.",
"                    ..&&&&&&&&&.&&&&&&&&&&.&&&&&&.",
"            ....    ....&&&&&&&.&&&&&&&&&&.&&&&&&.",
"           .####.....&&&.....&.&&&&&&&&&&&.&&&&&&.",
"          ..####...&&&&&&&&&&&&&&&&&&&&&&&.&&&&&&.",
"          ..####..&&&&&&&&&&&&&&&&&&&&&&&.&&&&&&&.",
"           .####..&&&&&&&&&&&&&&&&&&&&&&&.&&&&&&&.",
"           .####...&&&&&&&&&&&&&&&&&&&&&&.&&&&&&&.",
"           .####...&&&&&&&&&&&&&&&&&&&&&&.&&&&&&&.",
"           .....  ...&&&&&&&&&&&&&&&&&&&.&&&&&&&&.",
"            ..      ....&&&&&&&&&&&&&&.+&&&&&&&&&+",
"                     &&...............&&&&&&&&&&&+",
"                     .&&&&&&&&&&&&&&&&&&&&&&&&&&&.",
"                     .&&&&&&&&&&&&&&&&&&&&&&&&&&&.",
"                     .&&&&&&&&&&&&.&&&&&&&&&&&&&&.",
"                     .&&&&&&&&&&...&.....&&&&&&&. ",
"                      ..........@..&&&&&&.&&&&&.. ",
"                        .@@@@......&&&&&&&&.....  ",
"                        .@...@@@@@@........@@@@.  ",
"                        .@.@@@@@@@@@@@@@@@@@@@@.  ",
"                        .@.@@@@@@@@@@@@@@@@@@.@.. ",
"                       .@@.@@@@@@@@@@@@@@@@@@@@.. ",
"                      .@@@.@@@@@@@@@@@@@@@@@@@@.. ",
"                     .@@@+@@@@@@@@@@@@@@@@@@@@@.. ",
"                   ..@@@@.@@@@@@@@@@@@@@@@@@@@@.  ",
"                  ..@@@@@.@@@@@@@@@@@@@@@@@@@@@.  ",
"                 ..@@@@@..@@@@@@@@@@@@@@@@@@@@@.  ",
"               ..@@@@@@@.@@@@@@@@@@@@@@@@@@@@@..  ",
"              ..@@@@@@..@@@@@@@@@@@@@@@@@@@@@@.   ",
"             ..@@@@@@@.@@@@@@@@@@@@@@@@@@@@@@..   ",
"            .+@@@@@@..@@@@@@@@@@@@@@@@@@@@@@@.    ",
"           .@@@@@@@..@@@@@@@@@@@@@@@@@@@@@@@.     ",
"          .@@@@@@..@@@@@@@@@@@@@@@@@@@@@@@+.      ",
"         .+@@@@@.+@@@@@@@@@@@@@@@@@@@@@@@..       ",
"         .@@@@..@@@@@@@@@@@@@@@@@@@@@@@@..        ",
"        ..@@..@@@@@@@@@@@@@@@@@@@@@@@@@..         ",
"        .@@.+@@@@@@@@@@@@@@@@@@@@@@@@@..          ",
"        .@.@@@@@@@@@@@@@@@@@@@@@@@@@...           ",
"        @.@@@@@@@@@@@@@@@@@@@@@@@+...             ",
"       .@.@@@@@@@@@@@@@@@@@@@@@@+..               ",
"       ..@@@@@@@@@@@@@@@@@@@@@...                 ",
"       ..@@@@@@@@@@@@@@@@@@@...                   ",
"      ..@@@@@@@@@@@@@@@@@+...                     ",
"      ..@@@@@@@@@@@@@@@@..                        ",
"      .@@@@@@@@@@@@@@@+.                          ",
"      .@@@@@@@@@@@@@@+.                           ",
"      .@@@@@@@@@@@@@..                            ",
"     ..@@@@@@@@@@@@@@.                            ",
"     .@@@@@@@@@@@@@@..                            ",
"     .@@@@@@@@@@@@@@..                            ",
"     +@@@@@@@@@@@@@@..                            ",
"     .@@@@@@@@@@@@@@@.                            ",
"     .@@@@@@@@@@@@@@@.                            ",
"     .@@@@@@@@@@@@@@@.                            ",
"     .@@@@@@@@@@@@@@@.                            ",
"    ..@@@@@@@@@@@@@@@.                            ",
"    .@@@@@@@@@@@@@@@@..                           ",
"    .@@@@@@@@@@@@@@@@..                           ",
"   ..@@@@@@@@@@@@@@@@.                            ",
"   .@@@@@@@@@@@@@@@@@.                            ",
"   .@@@@@@@@@@@@@@@@@.                            ",
"  ..@@@@@@@@@@@@@@@@@.                            ",
"  .@@@@@@@@@@@@@@@@@@.                            ",
"  .@@@@@@@@@@@@@@@@@@.                            ",
"  .@@@@@@@@@@@@@@@@@@.                            ",
"  .@@@@@@@@@@@@@@@@@@.                            ",
"  .@@@@@@@@@@@@@@@@@@.                            ",
"  .@@@@@@@@@@@@@@@@@@.                            ",
"  .@@@@@@@@@@@@@@@@@@.                            ",
"  ..@@@@@@@@@@@@@@@@@.                            ",
"   .@@@@@@@@@@@@@@@@@.                            ",
"   ..@@@@@@@@@@@@@@@..                            ",
"    .@@@@@@@@@@@@@@@.                             ",
"     .@@@@@@@@@@@@@..                             ",
"     ....@.@@@@....                               ",
"    .............                                 ",
"#+........+###.                                   ",
".+#..####.####.                                   ",
".########.####.                                   ",
".#############.                                   ",
"....#########..                                   ",
"   ...........                                    ",
"                                                  ",
"                                                  ",
"                                                  ",
"                                                  ",
"                                                  ",
"                                                  "};
