/* XPM */
static char * ElderFisherGlow_xpm[] = {
"50 161 2 1",
" 	c None",
".	c #FAFAAA",
"                         .............            ",
"                        ................          ",
"                       ..................         ",
"                      ....................        ",
"                     ......................       ",
"                   ........................       ",
"                  ..........................      ",
"                  ..........................      ",
"                  ...........................     ",
"                 ............................     ",
"                 ............................     ",
"                 .............................    ",
"                 .............................    ",
"                  ............................    ",
"                  ............................    ",
"                  ............................    ",
"                  ............................    ",
"                  ............................    ",
"                   ...........................    ",
"                   ...........................    ",
"                   ..........................     ",
"                   ..........................     ",
"                   ..........................     ",
"                   ..........................     ",
"                   ..........................     ",
"                   ..........................     ",
"                   .........................      ",
"                   .........................      ",
"                     .......................      ",
"                       .....................      ",
"                        ....................      ",
"                         ...................      ",
"                         ...................      ",
"                         ....................     ",
"                          .................       ",
"                           ................       ",
"                              ..............      ",
"                              ...............     ",
"                             .................    ",
"                            ..................    ",
"                           ....................   ",
"                          .....................   ",
"                         ......................   ",
"                         ......................   ",
"                         .......................  ",
"                         .......................  ",
"                        ........................  ",
"                        ........................  ",
"                        ........................  ",
"                        ........................  ",
"                       .........................  ",
"                       .......................... ",
"                       .......................... ",
"                       .......................... ",
"                       .......................... ",
"                       .......................... ",
"                       .......................... ",
"                      ........................... ",
"                      ........................... ",
"                      ........................... ",
"                      ........................... ",
"                     ............................ ",
"                     ............................ ",
"                     ............................ ",
"                     ............................ ",
"                     ............................ ",
"                     ............................ ",
"                    ............................. ",
"                    ............................. ",
"                    ..............................",
"                    ..............................",
"                    ..............................",
"                    ..............................",
"                    ..............................",
"                    ..............................",
"            ....    ..............................",
"           .......................................",
"          ........................................",
"          ........................................",
"           .......................................",
"           .......................................",
"           .......................................",
"           .....  ................................",
"            ..      ..............................",
"                     .............................",
"                     .............................",
"                     .............................",
"                     .............................",
"                     ............................ ",
"                      ........................... ",
"                        ........................  ",
"                        ........................  ",
"                        ........................  ",
"                        ......................... ",
"                       .......................... ",
"                      ........................... ",
"                     ............................ ",
"                   .............................  ",
"                  ..............................  ",
"                 ...............................  ",
"               .................................  ",
"              .................................   ",
"             ..................................   ",
"            ..................................    ",
"           ..................................     ",
"          ..................................      ",
"         ..................................       ",
"         .................................        ",
"        .................................         ",
"        ................................          ",
"        ...............................           ",
"        .............................             ",
"       ............................               ",
"       ..........................                 ",
"       ........................                   ",
"      .......................                     ",
"      ....................                        ",
"      ..................                          ",
"      .................                           ",
"      ................                            ",
"     .................                            ",
"     .................                            ",
"     .................                            ",
"     .................                            ",
"     .................                            ",
"     .................                            ",
"     .................                            ",
"     .................                            ",
"    ..................                            ",
"    ...................                           ",
"    ...................                           ",
"   ...................                            ",
"   ...................                            ",
"   ...................                            ",
"  ....................                            ",
"  ....................                            ",
"  ....................                            ",
"  ....................                            ",
"  ....................                            ",
"  ....................                            ",
"  ....................                            ",
"  ....................                            ",
"  ....................                            ",
"   ...................                            ",
"   ...................                            ",
"    .................                             ",
"     ................                             ",
"     ..............                               ",
"    .............                                 ",
"...............                                   ",
"...............                                   ",
"...............                                   ",
"...............                                   ",
"...............                                   ",
"   ...........                                    ",
"                                                  ",
"                                                  ",
"                                                  ",
"                                                  ",
"                                                  ",
"                                                  "};
