/* XPM */
static char * Fish5_xpm[] = {
"71 26 4 1",
" 	c None",
".	c #3A185C",
"+	c #A6A665",
"@	c #C2C284",
"                                .                                      ",
"                            .  .  .  .  ......                         ",
"                           .  .  .  .  .++++++..                       ",
"                          .++.++.++.+ .+@@@@@@++.                      ",
"                         .............++++@@@@@@+.                     ",
"                    .....@@@@@@@@@@@@....++++++++.                   . ",
"                ....@@@@@@++++++++++@@@@@....+++.                  ..+.",
"             ...+++++++++++++++++++++++++++++.....               ..+++.",
"          ...++++++++++++++++++++++++++++++++++++...            .+++++.",
"        ..++++++++++++++++++++++++++++++++++++++++++...        .+++@+. ",
"      ..+++++++++++++++++++++++++++++++++++++++++++++++........+++@@+. ",
"    ..++++++++++++++++++++++++++++++++++++++++++++++++++++++++.++@++.  ",
"  ..+++++++++++++++++++++++++++++++++++++++++++++++++++++++++.++@@+.   ",
". +++++..++++++++++++++++++++++++++++++++++++++++++++++++++++.+@@@+.   ",
".++++++..++++++++++++++++++++++++++++++++++++++++++++++++++++.+@@@+.   ",
" .++++++++++++++++..+++++++++++++++++++++++++++++++++++++++++.++@@+.   ",
"  .+++++++++++++..++.+++++++++++++++++++++++++++++++++++++++++.++@++.  ",
"   .@@@@@@+++++.++++.++++++++++++++++++++++++++++++@@@@........+++@@+. ",
"    ..@@@@@@@@.++++.++++++++++++++++++++++++++@@@@@@...        .+++@+. ",
"      ..@@@@@@@....@@@@@@@@@@@@@@@@@@@@@@@@@@@@@@...            .+++++.",
"        ...@@@@@@@@@@@@@@@@@@@@@@@@@@@@@@@@@@@...                ..+++.",
"           ...@@@@@@@@@@@@@@@@@@@@@@@@@@@@@@..@@.                  ..+.",
"              .......@@@@@@@@@@@@@@@@@@@....+@@@@.                   . ",
"                 .+++.................   .++++++@.                     ",
"                 .+++.                    .+++++.                      ",
"                  ...                      .....                       "};
