/* XPM */
static char * FishGlowFlip_xpm[] = {
"71 26 3 1",
" 	c None",
".	c #FCE697",
"+	c #FAFAAA",
"                                      .                                ",
"                         ++++++  .  .  .  .                            ",
"                       +++++++++  +  +  +  +                           ",
"                      +++++++++++ +++++++++++                          ",
"                     +++++++++++++++++++++++++                         ",
" +                   ++++++++++++++++++++++++++++++                    ",
"++++                  +++++++++++++++++++++++++++++++++                ",
"++++++               +++++++++++++++++++++++++++++++++++++             ",
"+++++++            ++++++++++++++++++++++++++++++++++++++++++          ",
" +++++++        +++++++++++++++++++++++++++++++++++++++++++++++        ",
" ++++++++++++++++++++++++++++++++++++++++++++++++++++++++++++++++      ",
"  +++++++++++++++++++++++++++++++++++++++++++++++++++++++++++++++++    ",
"   ++++++++++++++++++++++++++++++++++++++++++++++++++++++++++++++++++  ",
"   ++++++++++++++++++++++++++++++++++++++++++++++++++++++++++++++++++ +",
"   ++++++++++++++++++++++++++++++++++++++++++++++++++++++++++++++++++++",
"   +++++++++++++++++++++++++++++++++++++++++++++++++++++++++++++++++++ ",
"  +++++++++++++++++++++++++++++++++++++++++++++++++++++++++++++++++++  ",
" +++++++++++++++++++++++++++++++++++++++++++++++++++++++++++++++++++   ",
" +++++++        +++++++++++++++++++++++++++++++++++++++++++++++++++    ",
"+++++++            ++++++++++++++++++++++++++++++++++++++++++++++      ",
"++++++                +++++++++++++++++++++++++++++++++++++++++        ",
"++++                  ++++++++++++++++++++++++++++++++++++++           ",
" +                   ++++++++++++++++++++++++++++++++++++              ",
"                     +++++++++   +++++++++++++++++++++                 ",
"                      +++++++                    +++++                 ",
"                       +++++                      +++                  "};
