/* XPM */
static char * FishHook_xpm[] = {
"8 10 3 1",
" 	c None",
".	c #331552",
"+	c #C2A384",
"     . .",
"      . ",
"      . ",
".     . ",
".     . ",
"..++  . ",
".+    + ",
".+    + ",
" .+  +  ",
"  .++   "};
