/* XPM */
static char * MowhawkFisher2_xpm[] = {
"50 161 8 1",
" 	c None",
".	c #9FBFDF",
"+	c #000000",
"@	c #BF8080",
"#	c #DFBF9F",
"$	c #FFFFFF",
"%	c #80BFBF",
"&	c #9FBF80",
"                   .                              ",
"           +   ++  +. ++  .                       ",
"       +.  ++  +@++@+ ++  +                       ",
"       .++ +.. +@.+@++@+  +   ++                  ",
"      +++@++@+++@++++@@+ ++  .++                  ",
"      +++@@+@++++##.++++ ++  +@+                  ",
"      +.+.@++##########++++ +@@+                  ",
"  ++   +.++##############++++@++                  ",
"  +.++ +++#################++@++                  ",
"   +@@++.####################++.                  ",
"    +@@+######################++                  ",
" .+ .++#######################.+                  ",
"  ++++.########################+                  ",
"   +@+##########################+                 ",
"++ .++##########################+                 ",
" +++.+##########################+                 ",
" +.@++########++################+                 ",
"  +.@+#######+##++##############+                 ",
"   +@+######.+##++##############+                 ",
"    ++######+##.#+######++++####+                 ",
"     +######+#+.+######+...+####+                 ",
"     +.#####..#+.######+++++###..                 ",
"     ++######+##+######++$%.##++                  ",
"     ++######+##+######++$%+##+                   ",
"     ++######+#+########++++#+                    ",
"      +.########+############+                    ",
"      ++######+++#.##########+                    ",
"      ++#######+##+###########+.                  ",
"       ++######+#.+############+                  ",
"       ++#######+#+##########+#+                  ",
"        +########+##########+++                   ",
"        ++#################+                      ",
"         +#################+                      ",
"         +##############+##+                      ",
"         +.####.#########++.                      ",
"         .+#####+#########+                       ",
"         .+#####+########+                        ",
"         .+#####.+#######+                        ",
"         &+#####+ +######+                        ",
"         +######+  ++###+                         ",
"         +######+   &+++&                         ",
"        &+&#####+&                                ",
"        ++++++++++&                               ",
"        +&++++++++++                              ",
"       +&&&&&&&&&&&&+                             ",
"       +&&&&&&&&&&&&&+                            ",
"      +&&&&&&&&&&&&&&+                            ",
"      +&&&&&&&&&&&&&&&+                           ",
"      +&&&&++&+++&&&&&+                           ",
"      +&&&+&&&&&++&&&&&+                          ",
"     &&&&&+&&&&&.+&&&&&&&                         ",
"     +&&&+&&&&&&&+&&&&&&+                         ",
"     +&&&+&&&&&&&&+&&&&&&+                        ",
"     +&&&+&&&&&&&&+&&&&&&+                        ",
"    &&&&&&&&&&&&&&+&&&&&&+                        ",
"    +&&&+&&&&&&&&&+&&&&&&&&                       ",
"    ++&&&&&&&&&&&&&+&&&&&&+                       ",
"    +&&&+&&&&&&&&&&+&&&&&&+                       ",
"    +&&&+&&&&&&&&&&+&&&&&&+                       ",
"   &&&&&+&&&&&&&&&&&+&&&&&+                       ",
"   +&&&&+&&&&&&&&&&&+&&&&&+                       ",
"   +&&&&+&&&&&&&&&&&+&&&&&&&                      ",
"   +&&&&+&&&&&&&&&&&+&&&&&&+                      ",
"   +&&&&+&&&&&&&&&&&+&&&&&&+                      ",
"   +&&&&&&&&&&&&&&&&+&&&&&&+                      ",
"  +&&&&+&&&&&&&&&&&&&+&&&&&+                      ",
"  +&&&&+&&&&&&&&&&&&&+&&&&&+                      ",
"  +&&&&+&&&&&&&&&&&&&+&&&&&+                      ",
"  +&&&&+&&&&&&&&&&&&&+&&&&&+                      ",
"  +&&&&+&&&&&&&&&&&&&+&&&&&+                      ",
"  +&&&&+&&&&&&&&&&&&&&&&&&&&                      ",
"  +&&&++&&&&&&&&&&&&+&&&&&+                       ",
"  +&&&&+&&&&&&&&&&&&+&&&&&+                       ",
"  +&&&&+&&&&&&&&&&&&+&&&&&+                       ",
"  +&&&&+&&&&&&&&&&&&+&&&&&+                       ",
"  +&&&&&+++++&&+++&+&&&&&&&                       ",
"  +&&&&+&+####+####&&&&&&+                        ",
" &&&&&&&&+########+&&&&&&+                        ",
" +&&&&&#&+########+&&&&&&+                        ",
" +&&&&&+&+########+&&&&&&+                        ",
" +&&&&&&&+#######+&&&&&&&+          ++&           ",
" +&&&&&&&+#######+&&&&&&&+        &+##&+          ",
" +&&&&&&&+#######+&++++++#++++&   +###+&+         ",
" +&&&&&&&+#######++############+++#####++         ",
" +&&&&&&&&##############################+         ",
" +&&&&&&&+#############################++         ",
" +&&&&&&&&+###########################++          ",
" +&&&&&&&&&+#################+++++#++#++          ",
" +&&&+&&&&&&++++#########++++&       &&           ",
" +&&&&&&&&&&&&++++++++++++&                       ",
" +&&&&&&&&&&&&&&&&&&&&&&+                         ",
" +&&&&&&&&&&&&&&&&&&&&&&+                         ",
" +#&&&&&&&&&&&&&&&&&&&&&+                         ",
" +&&&&&&&&&&&&&&&&&&&&&&+                         ",
"  &+++..++++++##+&&#&#&&+                         ",
"     +...............++#+                         ",
"    &&..................+                         ",
"    &...................+                         ",
"    +...................+                         ",
"    +...................++                        ",
"    +...................+.+                       ",
"    +...................+..+                      ",
"    +...................+...+                     ",
"    +...................+....++                   ",
"    +...................+......+&                 ",
"    +....................+......++                ",
"    +.....................++.....++               ",
"    &&.....................++.....&+              ",
"     +.......................++.....++            ",
"     &+.......................++......+           ",
"      &+.......................++......+          ",
"       &+.......................++......+         ",
"         +++.....................&+.....+         ",
"           &......................++.....+        ",
"             +++&..................&+....+        ",
"                &++.................&+...+  &     ",
"                  &++&...............&+..+        ",
"                       ...............&+.+        ",
"                       ++...............++        ",
"                        &+&..............+        ",
"                          &+.............+&       ",
"                            +.............+       ",
"                             +.............+      ",
"                             +.............+      ",
"                             &&............+      ",
"                              +............+      ",
"                              +............+      ",
"                              +............+      ",
"                              +............&      ",
"                              +............&      ",
"                              ++...........+      ",
"                               +...........+      ",
"                               +...........+      ",
"                               +...........+      ",
"                               ++..........+      ",
"                                +..........+      ",
"                                +..........+      ",
"                                +..........+      ",
"                                +..........+      ",
"                                +..........+      ",
"                                +..........+      ",
"                                +..........+      ",
"                                +..........+      ",
"                                +..........+      ",
"                                +..........+      ",
"                                +..........+      ",
"                                +.........++#     ",
"                                +..........+      ",
"                                +..........+      ",
"                                +..........+      ",
"                                +.........&       ",
"                                 ++++....++       ",
"                                   +#++++&        ",
"                                   +####+         ",
"                                   &&###+         ",
"                                    +####+++++++++",
"                                    +############+",
"                                    +############+",
"                                    +############+",
"                                    ++++++&######+",
"                                           ++++++$"};
