/* XPM */
static char * MowhawkFisherGlow2_xpm[] = {
"50 161 2 1",
" 	c None",
".	c #FAFAAA",
"                   .                              ",
"           .   ..  .. ..  .                       ",
"       ..  ..  ...... ..  .                       ",
"       ... ... .........  .   ..                  ",
"      .................. ..  ...                  ",
"      .................. ..  ...                  ",
"      ..................... ....                  ",
"  ..   .........................                  ",
"  .... .........................                  ",
"   .............................                  ",
"    ............................                  ",
" .. ............................                  ",
"  ..............................                  ",
"   ..............................                 ",
".. ..............................                 ",
" ................................                 ",
" ................................                 ",
"  ...............................                 ",
"   ..............................                 ",
"    .............................                 ",
"     ............................                 ",
"     ............................                 ",
"     ...........................                  ",
"     ..........................                   ",
"     .........................                    ",
"      ........................                    ",
"      ........................                    ",
"      ..........................                  ",
"       .........................                  ",
"       .........................                  ",
"        .......................                   ",
"        ....................                      ",
"         ...................                      ",
"         ...................                      ",
"         ...................                      ",
"         ..................                       ",
"         .................                        ",
"         .................                        ",
"         ........ ........                        ",
"         ........  ......                         ",
"         ........   .....                         ",
"        ..........                                ",
"        ...........                               ",
"        ............                              ",
"       ..............                             ",
"       ...............                            ",
"      ................                            ",
"      .................                           ",
"      .................                           ",
"      ..................                          ",
"     ....................                         ",
"     ....................                         ",
"     .....................                        ",
"     .....................                        ",
"    ......................                        ",
"    .......................                       ",
"    .......................                       ",
"    .......................                       ",
"    .......................                       ",
"   ........................                       ",
"   ........................                       ",
"   .........................                      ",
"   .........................                      ",
"   .........................                      ",
"   .........................                      ",
"  ..........................                      ",
"  ..........................                      ",
"  ..........................                      ",
"  ..........................                      ",
"  ..........................                      ",
"  ..........................                      ",
"  .........................                       ",
"  .........................                       ",
"  .........................                       ",
"  .........................                       ",
"  .........................                       ",
"  ........................                        ",
" .........................                        ",
" .........................                        ",
" .........................                        ",
" .........................          ...           ",
" .........................        ......          ",
" ..............................   .......         ",
" ........................................         ",
" ........................................         ",
" ........................................         ",
" .......................................          ",
" .......................................          ",
" .............................       ..           ",
" ..........................                       ",
" ........................                         ",
" ........................                         ",
" ........................                         ",
" ........................                         ",
"  .......................                         ",
"     ....................                         ",
"    .....................                         ",
"    .....................                         ",
"    .....................                         ",
"    ......................                        ",
"    .......................                       ",
"    ........................                      ",
"    .........................                     ",
"    ...........................                   ",
"    .............................                 ",
"    ..............................                ",
"    ...............................               ",
"    ................................              ",
"     .................................            ",
"     ..................................           ",
"      ..................................          ",
"       ..................................         ",
"         ................................         ",
"           ...............................        ",
"             .............................        ",
"                ..........................  .     ",
"                  ........................        ",
"                       ...................        ",
"                       ...................        ",
"                        ..................        ",
"                          .................       ",
"                            ...............       ",
"                             ...............      ",
"                             ...............      ",
"                             ...............      ",
"                              ..............      ",
"                              ..............      ",
"                              ..............      ",
"                              ..............      ",
"                              ..............      ",
"                              ..............      ",
"                               .............      ",
"                               .............      ",
"                               .............      ",
"                               .............      ",
"                                ............      ",
"                                ............      ",
"                                ............      ",
"                                ............      ",
"                                ............      ",
"                                ............      ",
"                                ............      ",
"                                ............      ",
"                                ............      ",
"                                ............      ",
"                                ............      ",
"                                .............     ",
"                                ............      ",
"                                ............      ",
"                                ............      ",
"                                ...........       ",
"                                 ..........       ",
"                                   .......        ",
"                                   ......         ",
"                                   ......         ",
"                                    ..............",
"                                    ..............",
"                                    ..............",
"                                    ..............",
"                                    ..............",
"                                           ...... "};
