/* XPM */
static char * PointFish_xpm[] = {
"26 71 4 1",
" 	c None",
".	c #3A185C",
"+	c #A6A665",
"@	c #C2C284",
"           ..             ",
"          .+              ",
"         .+++.            ",
"        .++++.            ",
"       .@+++++.           ",
"       .@+++++.           ",
"      .@@++++++.          ",
"      .@@++..++.          ",
"     .@@@++..+++.         ",
"     .@@@+++++++.         ",
"     .@@+++++++++.        ",
"    .@@@+++++++++.        ",
"    .@@@+++++++++.        ",
"    .@@@++++++++++.       ",
"   .@@@.++++++++++.       ",
"   .@@.+.+++++++++.       ",
"   .@@.++.+++++++++.      ",
" ...@@.++.+++++++++.      ",
".++.@@.+++.++++++++.      ",
".++.@@@.++.++++++++.      ",
".++.@@@+..+++++++++@.     ",
" ..@@@@++++++++++++@.     ",
"  .@@@@++++++++++++@.     ",
"  .@@@@++++++++++++@.     ",
"  .@@@@++++++++++++@.     ",
"  .@@@@++++++++++++@@.    ",
"  .@@@@+++++++++++++@..   ",
"  .@@@@+++++++++++++@.+.  ",
"  .@@@@+++++++++++++@.+ . ",
"  .@@@@+++++++++++++@..   ",
"  .@@@@+++++++++++++@.+.  ",
"  .@@@@+++++++++++++@.+ . ",
"  .@@@@+++++++++++++@..  .",
"  .@@@@+++++++++++++@.+.  ",
"  .@@@@+++++++++++++@.+ . ",
"  .@@@@+++++++++++++@..   ",
"  .@@@@++++++++++++@@.+.  ",
"  .@@@@++++++++++++@..  . ",
"   @@@@++++++++++++@.+.   ",
"   @@@@++++++++++++@.++.  ",
"   .@@@++++++++++++@.+@+. ",
"  ..@@@++++++++++++.++@+. ",
" .+.@@@++++++++++++.+@@+. ",
".++.@@@++++++++++++.+@@+. ",
".+++.@@++++++++++++.+@@+. ",
".++@.@@+++++++++++.++@@+. ",
".++@@.@@++++++++++.++@+.  ",
".++@@.@@++++++++++.++@+.  ",
" .@@..@@++++++++++..++.   ",
"  ..  .@+++++++++.. ..    ",
"      .@+++++++++.        ",
"      .@@++++++++.        ",
"       .@+++++++.         ",
"       .@+++++++.         ",
"       .@+++++++.         ",
"        .++++++.          ",
"        .++++++.          ",
"        .++++++.          ",
"        .++++++.          ",
"        .++++++.          ",
"        .++++++.          ",
"        .+....+.          ",
"        ..++++..          ",
"       .+++@@+++.         ",
"      .+++@@@@+++.        ",
"     .+++@@@@@@+++.       ",
"     .++@++++++@++.       ",
"    .++@@+....+@@++.      ",
"    .++++.    .++++.      ",
"   .+++..      ..+++.     ",
"    ...          ...      "};
