/* XPM */
static char * PoleFish1Flip_xpm[] = {
"296 50 2 1",
" 	c None",
".	c #000000",
"                          ........................................                                                                                                                                                                                                                                      ",
"                    ..........................................................                                                                                                                                                                                                                          ",
"                ..........................      .......................................                                                                                                                                                                                                                 ",
"             ..............                                       .............................                                                                                                                                                                                                         ",
"          ...........                                                        .........................                                                                                                                                                                                                  ",
"        .........                                                                     .......................                                                                                                                                                                                           ",
"       .......                                                                                .....................                                                                                                                                                                                     ",
"     .......                                                                                         ....................                                                                                                                                                                               ",
"    ......                                                                                                  ...................                                                                                                                                                                         ",
"   .....                                                                                                          ...................                                                                                                                                                                   ",
"   ....                                                                                                                  .................                                                                                                                                                              ",
"  ....                                                                                                                        ..................                                                                                                                                                        ",
" ....                                                                                                                               .................                                                                                                                                                   ",
" ....                                                                                                                                     ................                                                                                                                                              ",
" ...                                                                                                                                           ................                                                                                                                                         ",
" ...                                                                                                                                                ................                                                                                                                                    ",
"....                                                                                                                                                     ................                                                                                                                               ",
"...                                                                                                                                                           ................                                                                                                                          ",
"...                                                                                                                                                                ...............                                                                                                                      ",
"...                                                                                                                                                                     ...............                                                                                                                 ",
"....                                                                                                                                                                         ...............                                                                                                            ",
" ...                                                                                                                                                                              ..............                                                                                                        ",
" ...                                                                                                                                                                                  ..............                                                                                                    ",
" ...                                                                                                                                                                                       ..............                                                                                               ",
" ....                                                                                                                                                                                          ..............                                                                                           ",
"  ...                                                                                                                                                                                              ...............                                                                                      ",
"  ....                                                                                                                                                                                                  ..............                                                                                  ",
"   ...                                                                                                                                                                                                      ..............                                                                              ",
"   ....                                                                                                                                                                                                          .............                                                                          ",
"   ....                                                                                                                                                                                                              .............                                                                      ",
"    ....                                                                                                                                                                                                                 ..............                                                                 ",
"     ...                                                                                                                                                                                                                      .............                                                             ",
"     ....                                                                                                                                                                                                                         .............                                                         ",
"      ....                                                                                                                                                                                                                            .............                                                     ",
"       ....                                                                                                                                                                                                                               .............                                                 ",
"       ....                                                                                                                                                                                                                                   .............                                             ",
"        ....                                                                                                                                                                                                                                      .............                                         ",
"         ....                                                                                                                                                                                                                                         .............                                     ",
"         .....                                                                                                                                                                                                                                            .............                                 ",
"          ....                                                                                                                                                                                                                                                .............                             ",
"           ....                                                                                                                                                                                                                                                   ............                          ",
"            ....                                                                                                                                                                                                                                                      ............                      ",
"             ....                                                                                                                                                                                                                                                         ............                  ",
"              ....                                                                                                                                                                                                                                                           .............              ",
"              .....                                                                                                                                                                                                                                                              ............           ",
"               .....                                                                                                                                                                                                                                                                 ............       ",
"                .....                                                                                                                                                                                                                                                                    ............   ",
"                 .....                                                                                                                                                                                                                                                                       ...........",
"                  ....                                                                                                                                                                                                                                                                          ........",
"                   ..                                                                                                                                                                                                                                                                               ...."};
