/* XPM */
static char * PoleFish1_xpm[] = {
"296 50 2 1",
" 	c None",
".	c #000000",
"                                                                                                                                                                                                                                      ........................................                          ",
"                                                                                                                                                                                                                          ..........................................................                    ",
"                                                                                                                                                                                                                 .......................................      ..........................                ",
"                                                                                                                                                                                                         .............................                                       ..............             ",
"                                                                                                                                                                                                  .........................                                                        ...........          ",
"                                                                                                                                                                                           .......................                                                                     .........        ",
"                                                                                                                                                                                     .....................                                                                                .......       ",
"                                                                                                                                                                               ....................                                                                                         .......     ",
"                                                                                                                                                                         ...................                                                                                                  ......    ",
"                                                                                                                                                                   ...................                                                                                                          .....   ",
"                                                                                                                                                              .................                                                                                                                  ....   ",
"                                                                                                                                                        ..................                                                                                                                        ....  ",
"                                                                                                                                                   .................                                                                                                                               .... ",
"                                                                                                                                              ................                                                                                                                                     .... ",
"                                                                                                                                         ................                                                                                                                                           ... ",
"                                                                                                                                    ................                                                                                                                                                ... ",
"                                                                                                                               ................                                                                                                                                                     ....",
"                                                                                                                          ................                                                                                                                                                           ...",
"                                                                                                                      ...............                                                                                                                                                                ...",
"                                                                                                                 ...............                                                                                                                                                                     ...",
"                                                                                                            ...............                                                                                                                                                                         ....",
"                                                                                                        ..............                                                                                                                                                                              ... ",
"                                                                                                    ..............                                                                                                                                                                                  ... ",
"                                                                                               ..............                                                                                                                                                                                       ... ",
"                                                                                           ..............                                                                                                                                                                                          .... ",
"                                                                                      ...............                                                                                                                                                                                              ...  ",
"                                                                                  ..............                                                                                                                                                                                                  ....  ",
"                                                                              ..............                                                                                                                                                                                                      ...   ",
"                                                                          .............                                                                                                                                                                                                          ....   ",
"                                                                      .............                                                                                                                                                                                                              ....   ",
"                                                                 ..............                                                                                                                                                                                                                 ....    ",
"                                                             .............                                                                                                                                                                                                                      ...     ",
"                                                         .............                                                                                                                                                                                                                         ....     ",
"                                                     .............                                                                                                                                                                                                                            ....      ",
"                                                 .............                                                                                                                                                                                                                               ....       ",
"                                             .............                                                                                                                                                                                                                                   ....       ",
"                                         .............                                                                                                                                                                                                                                      ....        ",
"                                     .............                                                                                                                                                                                                                                         ....         ",
"                                 .............                                                                                                                                                                                                                                            .....         ",
"                             .............                                                                                                                                                                                                                                                ....          ",
"                          ............                                                                                                                                                                                                                                                   ....           ",
"                      ............                                                                                                                                                                                                                                                      ....            ",
"                  ............                                                                                                                                                                                                                                                         ....             ",
"              .............                                                                                                                                                                                                                                                           ....              ",
"           ............                                                                                                                                                                                                                                                              .....              ",
"       ............                                                                                                                                                                                                                                                                 .....               ",
"   ............                                                                                                                                                                                                                                                                    .....                ",
"...........                                                                                                                                                                                                                                                                       .....                 ",
"........                                                                                                                                                                                                                                                                          ....                  ",
"....                                                                                                                                                                                                                                                                               ..                   "};
