/* XPM */
static char * PoleNoFish1Flip_xpm[] = {
"275 50 2 1",
" 	c None",
".	c #000000",
"                                                                                                                                                                                                                                                                                   ",
"                                                                                                                                                                                                                                                                                   ",
"                                                                                                                                                                                                                                                                                   ",
"                                                                                                                                                                                                                                                                                   ",
"                                                                                                                                                                                                                                                                                   ",
"                                                                                                                                                                                                                                                                                   ",
"                                                                                                                                                                                                                                                                                   ",
"                                                                                                                                                                                                                                                                                   ",
"                                                                                                                                                                                                                                                                                   ",
"                                                                                                                                                                                                                                                                                   ",
"                                                                                                                                                                                                                                                                                   ",
"                                                                                                                                                                                                                                                                                   ",
"                                                                                                                                                                                                                                                                                   ",
"                                                                                                                                                                                                                                                                                   ",
"                                                                                                                                                                                                                                                                                   ",
"                                                                                                                                                                                                                                                                                   ",
"                                                                                                                                                                                                                                                                                   ",
"                                                                                                                                                                                                                                                                                   ",
"                                                                                                                                                                                                                                                                                   ",
"                                                                                                                                                                                                                                                                                   ",
"                                                                                                                                                                                                                                                                                   ",
"                                                                                                                                                                                                                                                                                   ",
"                                                                                                                                                                                                                                                                                   ",
"                                                                                                                                                                                                                                                                                   ",
"                                                                                                                                                                                                                                                                                   ",
"                                                                                                                                                                                                                                                                                   ",
"                                                                                                                                                                                                                                                                                   ",
"                                                                                                                                                                                                                                                                                   ",
"                                                                                                                                                                                                                                                                                   ",
"                                                                                                                                                                                                                                                                                   ",
"                                                                                                                                                                                                                                                                                   ",
"                                                                                                                                                                                                                                                                                   ",
"                                                                                                                                                                                                                                                                                   ",
"                                                                                                                                                                                                                                                                                   ",
"                                                                                                                                                                                                                                                                                   ",
"                                                                                                                                                                                                                                                                                   ",
"                                                                                                                                                                                                                                                                                   ",
"                                                                                                                                                                                                                                                                                   ",
"                                                                                                                                                                                                                                                                                   ",
"                                                                                                                                                                                                                                                                                   ",
"                                                                                                                                                                                                                                                                                   ",
"                                                                                                                                                                                                                                                                                   ",
"                                                                                                                                                                                                                                                                                   ",
"                                                                                                                                                                                                                                                                                   ",
"                                                                                                                                                                                                                                                                                   ",
"                                                                                                                                                                                                                                                                                   ",
"                                                                                                                                                                                                                                                                                   ",
"                                                                                                                                                                                                                                                                                   ",
"...................................................................................................................................................................................................................................................................................",
"..................................................................................................................................................................................................................................................................................."};
