/* XPM */
static char * Ripple5_xpm[] = {
"26 8 2 1",
" 	c None",
".	c #F0FAFA",
"                          ",
"                          ",
"    .                .    ",
"     .              .     ",
"      .            .      ",
"       ............       ",
"                          ",
"                          "};
