/* XPM */
static char * Ripple3_xpm[] = {
"20 20 2 1",
" 	c None",
".	c #F0FAFA",
"                    ",
"                    ",
"                    ",
"                    ",
"                    ",
"                    ",
"                    ",
"                    ",
"        ...         ",
"      ..   ..       ",
"     .       .      ",
"      ..   ..       ",
"        ...         ",
"                    ",
"                    ",
"                    ",
"                    ",
"                    ",
"                    ",
"                    "};
