/* XPM */
static char * SeaHorseFlip_xpm[] = {
"40 89 250 2",
"  	c None",
". 	c #6B5F58",
"+ 	c #6E625A",
"@ 	c #7B8560",
"# 	c #72685D",
"$ 	c #7F8D63",
"% 	c #7F8C63",
"& 	c #839A63",
"* 	c #839963",
"= 	c #7E8C61",
"- 	c #869E63",
"; 	c #C2DEA7",
"> 	c #9EB47D",
", 	c #352140",
"' 	c #281236",
") 	c #3A2D37",
"! 	c #85A665",
"~ 	c #A3C284",
"{ 	c #413145",
"] 	c #625C48",
"^ 	c #848A63",
"/ 	c #828363",
"( 	c #8D8E66",
"_ 	c #7E925E",
": 	c #686A40",
"< 	c #64663E",
"[ 	c #50404B",
"} 	c #696C3F",
"| 	c #665A58",
"1 	c #819B5A",
"2 	c #696050",
"3 	c #3E2F3B",
"4 	c #69644A",
"5 	c #352238",
"6 	c #79795D",
"7 	c #2A133B",
"8 	c #473D3A",
"9 	c #819463",
"0 	c #2E183E",
"a 	c #4B572C",
"b 	c #A1BB77",
"c 	c #2A1238",
"d 	c #9AAC53",
"e 	c #675958",
"f 	c #445421",
"g 	c #30212B",
"h 	c #3F3435",
"i 	c #25083B",
"j 	c #4C651B",
"k 	c #3B3437",
"l 	c #342040",
"m 	c #382D39",
"n 	c #61752A",
"o 	c #929854",
"p 	c #70655A",
"q 	c #392840",
"r 	c #526C1E",
"s 	c #483A48",
"t 	c #9DB27A",
"u 	c #382D38",
"v 	c #546F20",
"w 	c #2F1E30",
"x 	c #260543",
"y 	c #37273B",
"z 	c #404728",
"A 	c #321649",
"B 	c #858863",
"C 	c #66683E",
"D 	c #3F343C",
"E 	c #717C49",
"F 	c #60603C",
"G 	c #37312F",
"H 	c #42353D",
"I 	c #372B36",
"J 	c #655855",
"K 	c #869B57",
"L 	c #35184B",
"M 	c #25102E",
"N 	c #493F3E",
"O 	c #341A49",
"P 	c #BCD39C",
"Q 	c #615F41",
"R 	c #493844",
"S 	c #494639",
"T 	c #200239",
"U 	c #5E504E",
"V 	c #5D5E3B",
"W 	c #455223",
"X 	c #261134",
"Y 	c #3F3A38",
"Z 	c #200A2D",
"` 	c #768942",
" .	c #6F645B",
"..	c #3E333A",
"+.	c #6F6459",
"@.	c #2E193A",
"#.	c #51414A",
"$.	c #819263",
"%.	c #39382A",
"&.	c #72685C",
"*.	c #839062",
"=.	c #B6C289",
"-.	c #858763",
";.	c #3B3B29",
">.	c #A4BE82",
",.	c #4E3E4B",
"'.	c #675F4F",
").	c #6E6258",
"!.	c #65663F",
"~.	c #5F5749",
"{.	c #82A060",
"].	c #4D404B",
"^.	c #819C5A",
"/.	c #605257",
"(.	c #6D625D",
"_.	c #50404C",
":.	c #45393A",
"<.	c #3C2D3B",
"[.	c #939F67",
"}.	c #403435",
"|.	c #3E303B",
"1.	c #433243",
"2.	c #493E3F",
"3.	c #463546",
"4.	c #483748",
"5.	c #7C924E",
"6.	c #5A4C54",
"7.	c #7C9358",
"8.	c #5B4D54",
"9.	c #4F3E4D",
"0.	c #404629",
"a.	c #9BB070",
"b.	c #5A5446",
"c.	c #3B2840",
"d.	c #3D3B30",
"e.	c #445520",
"f.	c #412E44",
"g.	c #728241",
"h.	c #48364A",
"i.	c #A0B97F",
"j.	c #574C4B",
"k.	c #38362C",
"l.	c #726E54",
"m.	c #4B6A14",
"n.	c #35223F",
"o.	c #465128",
"p.	c #5E5051",
"q.	c #445221",
"r.	c #9FB97F",
"s.	c #445322",
"t.	c #435221",
"u.	c #5A4C4E",
"v.	c #475724",
"w.	c #506524",
"x.	c #311C38",
"y.	c #4A631A",
"z.	c #686348",
"A.	c #4B6C13",
"B.	c #453B36",
"C.	c #4A6C11",
"D.	c #39273F",
"E.	c #331F3E",
"F.	c #2F1B3B",
"G.	c #321D3D",
"H.	c #2D1839",
"I.	c #4C6818",
"J.	c #270E3F",
"K.	c #5F5D3E",
"L.	c #45472C",
"M.	c #4D4244",
"N.	c #4B611F",
"O.	c #50483E",
"P.	c #6C6F46",
"Q.	c #4D5C28",
"R.	c #33213A",
"S.	c #61683B",
"T.	c #636142",
"U.	c #465424",
"V.	c #200336",
"W.	c #3D2B41",
"X.	c #3F422D",
"Y.	c #504C37",
"Z.	c #5F5E3C",
"`.	c #60613C",
" +	c #605F3F",
".+	c #98A867",
"++	c #5D5B3D",
"@+	c #45383E",
"#+	c #34213F",
"$+	c #250E32",
"%+	c #2F1A3B",
"&+	c #63653E",
"*+	c #54632B",
"=+	c #64693D",
"-+	c #829363",
";+	c #5C4F52",
">+	c #4D5031",
",+	c #A5BD81",
"'+	c #5E7624",
")+	c #554B45",
"!+	c #64653D",
"~+	c #3A2741",
"{+	c #37233F",
"]+	c #9CB377",
"^+	c #3E3138",
"/+	c #50493D",
"(+	c #28103C",
"_+	c #453347",
":+	c #4A4936",
"<+	c #7B9355",
"[+	c #56513C",
"}+	c #595145",
"|+	c #66683C",
"1+	c #A3C183",
"2+	c #261035",
"3+	c #625352",
"4+	c #59553D",
"5+	c #3E2E3F",
"6+	c #898564",
"7+	c #2F1B39",
"8+	c #625553",
"9+	c #5B573F",
"0+	c #596133",
"a+	c #453642",
"b+	c #50424C",
"c+	c #554F3F",
"d+	c #798B41",
"e+	c #3C2A3F",
"f+	c #53444F",
"g+	c #240D36",
"h+	c #5F5254",
"i+	c #260F38",
"j+	c #5A4B51",
"k+	c #18002E",
"l+	c #656641",
"m+	c #302031",
"n+	c #5D6C2E",
"o+	c #41323F",
"p+	c #54503B",
"q+	c #3A2A3C",
"r+	c #56533F",
"s+	c #7F995C",
"t+	c #535535",
"u+	c #2F1B3D",
"v+	c #341F42",
"w+	c #44383B",
"x+	c #493E40",
"y+	c #4A3E41",
"z+	c #473C3D",
"A+	c #331C45",
"                                                                                ",
"                            . + @ # $ % & * =                                   ",
"                      - ; ; ; ; ; ; ; ; ; ; ; ; > , '                           ",
"                  ) ! ; ; ; ; ; ~ ~ ~ ~ ~ ~ ; ; ; ; ; ; {                       ",
"                ] ; ; ; ~ ~ ~ ~ ! ~ ~ ~ ~ ~ ~ ~ ~ ; ; ; ; ^                     ",
"              ! ; ; ~ ! ~ ~ ~ ~ ~ ~ ~ ~ ~ ~ ~ ~ ~ ~ ; ; ; ; /                   ",
"              ; ; ~ ~ ~ ~ ~ ~ ~ ~ ! ~ ~ ~ ~ ~ ~ ! ~ ~ ~ ~ ; (                   ",
"            _ ; ; ~ ~ ~ ~ ~ ~ ~ ~ ~ ~ ~ ! ! ~ ~ ~ ~ ~ ~ ~ ~ :                   ",
"            ~ ; ~ ~ ~ ~ ~ ~ ~ ~ ~ ~ ~ ~ ~ ~ ~ ~ ! ~ ! ~ ~ ~ <                   ",
"          [ ; ; ~ ~ ~ ~ ~ ~ ~ ~ ~ ~ ~ ~ ~ ~ ~ ~ ~ ~ ~ ~ ~ ~ }                   ",
"          | ; ~ ~ ~ ~ ~ ~ ~ ! ~ ~ ~ ~ ~ ~ ~ ~ ~ ~ ~ ~ ~ ! ! 1                   ",
"          2 ; ~ ! ~ ~ ~ ~ ~ ~ ~ ~ ~ ~ ~ ~ ! ~ ~ ~ ~ ~ ~ ~ ~ ; 3                 ",
"        ; 4 ; ~ ~ ~ ~ ~ ~ ~ ~ ~ ~ ~ ~ ~ ~ ~ ~ ~ ~ ~ ~ ~ ~ ~ ~ ! 5               ",
"          ! ; ~ ~ ~ ~ ~ ~ ~ ~ ~ ~ ~ ~ ~ ~ ~ ~ ~ ~ ~ ~ ~ ~ ~ ~ ; ; 6             ",
"        7 ; ; ~ ~ ~ ~ ~ ~ ~ ~ ~ ~ ~ ! 8 ! ~ ~ ~ ~ ~ ~ ~ ~ ~ ~ ~ ; ; 9           ",
"        0 ; ; ~ ! ! ~ ~ ~ ~ ~ ~ ~ ; ;   a ! ~ ! ~ ~ ~ ~ ! ~ ~ ; b ; ~           ",
"        c d ~ ! ~ ~ ~ ~ ! ~ ~ ~ ! ; ; e   f ! ~ ~ ~ ~ ~ ~ ~ ~ g h ; ~           ",
"        i ! ! ! ~ ~ ~ ! ~ ~ ~ ~ ~ ; ; ~     j ! ~ ~ ~ ~ ~ ~ ~ ! ~ ; !           ",
"        k ! ! ! ! ! ~ ~ ~ ~ ~ ~ ~ ; ; ; l   m ! ! ~ ~ ~ ~ ~ ~ ~ ~ ~ ;           ",
"        n ! ~ ~ ! ! ! ! ~ ~ ~ ~ ~ o ; ; p     q r ! ! ~ ~ ! ! ~ ~ ~ ! s         ",
"        ! ! ~ ! ! ~ ~ ~ ~ ~ ~ ~ ~ ~ ; ; t         u v ! ! ~ ~ ~ ~ ! ! w         ",
"      x ! ! ! ~ ~ ~ ~ ~ ~ ~ ~ ~ ~ ~ ; ; ; y             z ! ~ ! ~ ~ ;           ",
"      A ! ! ~ ! ! ~ ~ ~ ~ ~ ~ ~ ! ~ ; ; ; B                 ; ~ ! ~ C           ",
"      D ! ! ~ ~ ~ ! ! ! ~ ~ ~ ~ ~ ~ ~ ; ; ;                 E ~ ~ ~ F           ",
"      G ! ! ~ ~ ~ ~ ~ ! ! ~ ~ ~ ! ~ ~ ; ; ;                 H ! ~ ~ <           ",
"      I ! ! ~ ~ ~ ~ ~ ~ ~ ~ ~ ~ ~ ~ ~ ; ; ; J                 ; ~ ~ K           ",
"      L ! ! ! ~ ~ ~ ~ ~ ~ ! ~ ~ ! ~ ~ ~ ; ; ~                 M ~ ~ ~ N         ",
"      O ! ! ~ ! ! ! ! ! ~ ~ ~ ~ ! ~ ~ ~ ; ; P                   Q ~ ~ ;         ",
"        ! ! ~ ~ ! ! ! ! ! ~ ~ ~ ~ ~ ~ ~ ~ ; ; R                   ; ! ~ S       ",
"      T ! ! ~ ~ ~ ~ ~ ~ ~ ~ ~ ~ ~ ~ ~ ~ ~ ; ; U                   V ~ ~ !       ",
"        W ! ~ ~ ~ ~ ~ ~ ~ ~ ~ ~ ! ~ ~ ~ ~ ; ; ; X                   ! ! ~ !     ",
"        Y ! ~ ~ ~ ~ ~ ~ ~ ~ ~ ~ ~ ~ ~ ! ~ ~ ; ; Z                   ` ! ; ;  .  ",
"        ..! ~ ~ ~ ~ ~ ~ ~ ~ ~ ~ ~ ~ ~ ~ ~ ~ ; ; +.@.                #.; ; ; $.  ",
"        %.! ! ! ! ! ~ ! ! ~ ~ ~ ~ ~ ~ ~ ~ ~ ~ ; ; &.                  *.=.-.    ",
"    ! ~ ;.! ~ ! ! ! ! ! ! ~ ~ ~ ! ~ ~ ~ ~ ~ ~ ~ ; >.                            ",
"  ,.; ; ! ! ~ ~ ~ ~ ~ ~ ~ ~ ~ ~ ! ~ ~ ~ ~ ~ ~ ~ ~ !                             ",
"  '.; ; ~ ! ~ ~ ~ ~ ~ ~ ~ ~ ~ ~ ~ ~ ~ ~ ~ ~ ~ ~ ~ !                             ",
"  ).; ~ ~ ! ! ~ ~ ~ ~ ~ ~ ~ ~ ~ ~ ~ ~ ~ ~ ~ ~ ~ ~ ~ !.                          ",
"  ~.; ~ ~ ! ! ! ! ! ! ~ ~ ~ ~ ~ ~ ~ ~ ~ ~ ~ ~ ~ ~ ~ {.                          ",
"  ].; ; ! ! ! ~ ~ ! ! ! ! ~ ~ ~ ! ~ ~ ~ ~ ~ ~ ~ ~ ~ ^.                          ",
"  /.; ; ; ! ! ~ ~ ~ ~ ~ ~ ~ ~ ~ ~ ~ ~ ~ ~ ~ ~ ~ ~ ! ;                           ",
"  (.; ; ; ! ! ~ ~ ~ ~ ~ ~ ~ ~ ~ ! ! ~ ~ ~ ! ~ ~ ~ ~ ~                           ",
"  _.; ; ~ ! ! ~ ~ ~ ~ ~ ~ ~ ~ ~ ! ~ ~ ~ ~ ~ ~ ~ ~ ~ ! :.                        ",
"  <.~ ~ ~ ! ! ! ! ! ! ! ! ~ ~ ~ ~ ~ ~ ~ ~ ~ ~ ~ ~ ~ [.}.                        ",
"  |.! ~ ~ ! ! ~ ~ ~ ~ ~ ~ ~ ~ ~ ~ ~ ~ ~ ~ ~ ~ ~ ~ ~ [.}.                        ",
"  1.; ; ~ ! ! ~ ~ ~ ~ ~ ~ ~ ~ ~ ~ ~ ~ ~ ~ ~ ~ ~ ~ ~ ! 2.                        ",
"  3.; ; ! ! ! ~ ~ ~ ~ ! ~ ~ ~ ~ ! ~ ~ ~ ~ ~ ~ ~ ~ ~ ;                           ",
"  4.; ; ! ! ! ~ ~ ~ ~ ~ ~ ~ ~ ~ ~ ~ ~ ~ ~ ~ ~ ~ ~ ~ 5.                          ",
"  6.; ! ! ! ! ! ! ! ! ! ~ ~ ~ ~ ~ ~ ~ ! ~ ~ ~ ~ ~ ~ 7.                          ",
"  8.; 9.0.a.~ ! ! ! ! ! ! ~ ~ ~ ~ ~ ~ ~ ~ ~ ! ; ; ; b.                          ",
"    c.  d.! ~ ~ ~ ~ ~ ~ ~ ~ ~ ~ ~ ~ ~ ~ ; ; ; ; ; ;                             ",
"        e.! ~ ~ ~ ~ ~ ! ~ ~ ~ ~ ~ ! ; ; ; ; ; ; ; f.                            ",
"        g.! ! ~ ~ ~ ~ ~ ~ ~ ~ ~ ; ; ; ; ; ; ; ; h.                              ",
"        ! ! ~ ~ ! ! ! ~ ~ ~ ~ ; ; ; ; ; ; ; i.                                  ",
"        ! ~ ~ ~ ~ ~ ~ ~ ~ ~ ; ; ; ; ; ; ; j.                                    ",
"      k.! ~ ~ ~ ~ ~ ~ ! ! ; ; ; ; ; ; ; l.                                      ",
"      m.! ! ~ ~ ~ ~ ~ ~ ; ; ; ; ; ; ; ; n.                                      ",
"      ! ! ! ! ~ ~ ~ ~ ~ ; ; ; ; ; ; ; ~                                         ",
"    o.! ~ ~ ! ! ! ! ~ ~ ; ; ; ; ; ; ; p.                                        ",
"    q.! ~ ~ ~ ~ ! ! ~ ; ; ; ; ; ; ; r.                                          ",
"    s.! ~ ~ ~ ~ ~ ~ ~ ~ ; ; ; ; ; ;                                             ",
"    t.! ~ ~ ! ~ ~ ! ~ ~ ; ; ; ; ; u.                                            ",
"    v.! ~ ~ ~ ~ ~ ! ~ ~ ~ ; ; ; ~                                               ",
"    w.! ! ! ! ! ~ ! ~ ~ ~ ~ ; ; x.                                              ",
"    y.! ~ ~ ! ! ! ! ! ~ ! ~ ; z.                                                ",
"  ~ A.! ~ ~ ~ ~ ! ~ ~ ~ ~ ~ ; B.                                                ",
"  ~ C.! ~ ~ ~ ~ ~ ~ ~ ! ~ ~ D.          E.F.G.H.                                ",
"  ~ I.! ~ ~ ~ ~ ~ ! ~ ~ ! J.        K.; ! ~ ~ ; L.M.                            ",
"    N.! ~ ~ ~ ~ ~ ~ ~ ~ O.        ~ ~ ~ ! ! ~ ! ! ! P.                          ",
"    Q.! ! ! ! ! ! ! ~ ~ R.      S.! ~ ~ ~ ! ~ ! ! ~ ~ T.                        ",
"    U.! ! ! ! ! ~ ! ~ ~       V.! ! ~ ! ~ ~ ~ ~ ~ ! ! ! W.                      ",
"    X.! ! ~ ~ ~ ~ ~ ~ >.      Y.~ ! ~ ! Z.`.; ~ ~ ~ ~ ~ ;                       ",
"       +~ ~ ~ ~ ~ ~ ! .+      ; ! ~ ^.        ++~ ! ~ ! ~ @+                    ",
"      #+~ ~ ~ ~ ~ ~ ; !       ! ! ; $+      %+  &+~ ! ! ! *+                    ",
"        ! ! ! ! ! ! ; ~       ! ! =+        -+;+  ! ~ ~ ~ ~                     ",
"        >+! ! ! ~ ~ ; ~       ,+~ '+        ! )+  !+~ ~ ! ;                     ",
"        ~+~ ~ ~ ! ~ ; ; {+      ; ! ! ~ ! ]+! ^+  /+~ ! ! !                     ",
"        (+! ~ ! ~ ~ ~ ; _+        :+<+~ ~ ~ [+    }+! ~ ~ !                     ",
"          |+~ ~ ! ! ! ; 1+2+                      3+; ~ ~ ! 4+                  ",
"          5+! ! ! ~ ~ ; ; 6+7+                    8+; ! ! ! 9+                  ",
"            0+! ~ ! ~ ~ ; ; ~ a+                b+! ~ ! ! ! c+                  ",
"              d+~ ~ ! ! ; ; ; ; ~ e+f+g+h+i+j+~ ; ; ~ ! ~ ;                     ",
"              k+! ~ ! ! ~ ; ; ; ; ; ; ; ; ; ; ; ; ~ ! ! ~ l+                    ",
"                m+; ! ~ ~ ~ ; ; ; ; ; ; ; ; ~ ! ~ ~ ! ! ;                       ",
"                    ! ~ ~ ! ! ~ ~ ~ ~ ~ ~ ~ ! ! ! ~ ! n+                        ",
"                      o+~ ! ! ! ~ ~ ! ~ ! ~ ! ! ~ p+q+                          ",
"                          r+; ~ ~ ! ! ! ~ ~ s+t+u+                              ",
"                              v+w+x+y+z+A+                                      ",
"                                                                                "};
