/* XPM */
static char * SeaHorse_xpm[] = {
"40 89 250 2",
"  	c None",
". 	c #7E8C61",
"+ 	c #839963",
"@ 	c #839A63",
"# 	c #7F8C63",
"$ 	c #7F8D63",
"% 	c #72685D",
"& 	c #7B8560",
"* 	c #6E625A",
"= 	c #6B5F58",
"- 	c #281236",
"; 	c #352140",
"> 	c #9EB47D",
", 	c #C2DEA7",
"' 	c #869E63",
") 	c #413145",
"! 	c #A3C284",
"~ 	c #85A665",
"{ 	c #3A2D37",
"] 	c #848A63",
"^ 	c #625C48",
"/ 	c #828363",
"( 	c #8D8E66",
"_ 	c #686A40",
": 	c #7E925E",
"< 	c #64663E",
"[ 	c #696C3F",
"} 	c #50404B",
"| 	c #819B5A",
"1 	c #665A58",
"2 	c #3E2F3B",
"3 	c #696050",
"4 	c #352238",
"5 	c #69644A",
"6 	c #79795D",
"7 	c #819463",
"8 	c #473D3A",
"9 	c #2A133B",
"0 	c #A1BB77",
"a 	c #4B572C",
"b 	c #2E183E",
"c 	c #3F3435",
"d 	c #30212B",
"e 	c #445421",
"f 	c #675958",
"g 	c #9AAC53",
"h 	c #2A1238",
"i 	c #4C651B",
"j 	c #25083B",
"k 	c #382D39",
"l 	c #342040",
"m 	c #3B3437",
"n 	c #483A48",
"o 	c #526C1E",
"p 	c #392840",
"q 	c #70655A",
"r 	c #929854",
"s 	c #61752A",
"t 	c #2F1E30",
"u 	c #546F20",
"v 	c #382D38",
"w 	c #9DB27A",
"x 	c #404728",
"y 	c #37273B",
"z 	c #260543",
"A 	c #66683E",
"B 	c #858863",
"C 	c #321649",
"D 	c #60603C",
"E 	c #717C49",
"F 	c #3F343C",
"G 	c #42353D",
"H 	c #37312F",
"I 	c #869B57",
"J 	c #655855",
"K 	c #372B36",
"L 	c #493F3E",
"M 	c #25102E",
"N 	c #35184B",
"O 	c #615F41",
"P 	c #BCD39C",
"Q 	c #341A49",
"R 	c #494639",
"S 	c #493844",
"T 	c #5D5E3B",
"U 	c #5E504E",
"V 	c #200239",
"W 	c #261134",
"X 	c #455223",
"Y 	c #6F645B",
"Z 	c #768942",
"` 	c #200A2D",
" .	c #3F3A38",
"..	c #819263",
"+.	c #51414A",
"@.	c #2E193A",
"#.	c #6F6459",
"$.	c #3E333A",
"%.	c #858763",
"&.	c #B6C289",
"*.	c #839062",
"=.	c #72685C",
"-.	c #39382A",
";.	c #A4BE82",
">.	c #3B3B29",
",.	c #4E3E4B",
"'.	c #675F4F",
").	c #65663F",
"!.	c #6E6258",
"~.	c #82A060",
"{.	c #5F5749",
"].	c #819C5A",
"^.	c #4D404B",
"/.	c #605257",
"(.	c #6D625D",
"_.	c #45393A",
":.	c #50404C",
"<.	c #403435",
"[.	c #939F67",
"}.	c #3C2D3B",
"|.	c #3E303B",
"1.	c #493E3F",
"2.	c #433243",
"3.	c #463546",
"4.	c #7C924E",
"5.	c #483748",
"6.	c #7C9358",
"7.	c #5A4C54",
"8.	c #5A5446",
"9.	c #9BB070",
"0.	c #404629",
"a.	c #4F3E4D",
"b.	c #5B4D54",
"c.	c #3D3B30",
"d.	c #3B2840",
"e.	c #412E44",
"f.	c #445520",
"g.	c #48364A",
"h.	c #728241",
"i.	c #A0B97F",
"j.	c #574C4B",
"k.	c #726E54",
"l.	c #38362C",
"m.	c #35223F",
"n.	c #4B6A14",
"o.	c #5E5051",
"p.	c #465128",
"q.	c #9FB97F",
"r.	c #445221",
"s.	c #445322",
"t.	c #5A4C4E",
"u.	c #435221",
"v.	c #475724",
"w.	c #311C38",
"x.	c #506524",
"y.	c #686348",
"z.	c #4A631A",
"A.	c #453B36",
"B.	c #4B6C13",
"C.	c #2D1839",
"D.	c #321D3D",
"E.	c #2F1B3B",
"F.	c #331F3E",
"G.	c #39273F",
"H.	c #4A6C11",
"I.	c #4D4244",
"J.	c #45472C",
"K.	c #5F5D3E",
"L.	c #270E3F",
"M.	c #4C6818",
"N.	c #6C6F46",
"O.	c #50483E",
"P.	c #4B611F",
"Q.	c #636142",
"R.	c #61683B",
"S.	c #33213A",
"T.	c #4D5C28",
"U.	c #3D2B41",
"V.	c #200336",
"W.	c #465424",
"X.	c #60613C",
"Y.	c #5F5E3C",
"Z.	c #504C37",
"`.	c #3F422D",
" +	c #45383E",
".+	c #5D5B3D",
"++	c #98A867",
"@+	c #605F3F",
"#+	c #54632B",
"$+	c #63653E",
"%+	c #2F1A3B",
"&+	c #250E32",
"*+	c #34213F",
"=+	c #5C4F52",
"-+	c #829363",
";+	c #64693D",
">+	c #64653D",
",+	c #554B45",
"'+	c #5E7624",
")+	c #A5BD81",
"!+	c #4D5031",
"~+	c #50493D",
"{+	c #3E3138",
"]+	c #9CB377",
"^+	c #37233F",
"/+	c #3A2741",
"(+	c #595145",
"_+	c #56513C",
":+	c #7B9355",
"<+	c #4A4936",
"[+	c #453347",
"}+	c #28103C",
"|+	c #59553D",
"1+	c #625352",
"2+	c #261035",
"3+	c #A3C183",
"4+	c #66683C",
"5+	c #5B573F",
"6+	c #625553",
"7+	c #2F1B39",
"8+	c #898564",
"9+	c #3E2E3F",
"0+	c #554F3F",
"a+	c #50424C",
"b+	c #453642",
"c+	c #596133",
"d+	c #5A4B51",
"e+	c #260F38",
"f+	c #5F5254",
"g+	c #240D36",
"h+	c #53444F",
"i+	c #3C2A3F",
"j+	c #798B41",
"k+	c #656641",
"l+	c #18002E",
"m+	c #302031",
"n+	c #5D6C2E",
"o+	c #3A2A3C",
"p+	c #54503B",
"q+	c #41323F",
"r+	c #2F1B3D",
"s+	c #535535",
"t+	c #7F995C",
"u+	c #56533F",
"v+	c #331C45",
"w+	c #473C3D",
"x+	c #4A3E41",
"y+	c #493E40",
"z+	c #44383B",
"A+	c #341F42",
"                                                                                ",
"                                  . + @ # $ % & * =                             ",
"                          - ; > , , , , , , , , , , , , '                       ",
"                      ) , , , , , , ! ! ! ! ! ! , , , , , ~ {                   ",
"                    ] , , , , ! ! ! ! ! ! ! ! ~ ! ! ! ! , , , ^                 ",
"                  / , , , , ! ! ! ! ! ! ! ! ! ! ! ! ! ! ~ ! , , ~               ",
"                  ( , ! ! ! ! ~ ! ! ! ! ! ! ~ ! ! ! ! ! ! ! ! , ,               ",
"                  _ ! ! ! ! ! ! ! ! ~ ~ ! ! ! ! ! ! ! ! ! ! ! , , :             ",
"                  < ! ! ! ~ ! ~ ! ! ! ! ! ! ! ! ! ! ! ! ! ! ! ! , !             ",
"                  [ ! ! ! ! ! ! ! ! ! ! ! ! ! ! ! ! ! ! ! ! ! ! , , }           ",
"                  | ~ ~ ! ! ! ! ! ! ! ! ! ! ! ! ! ~ ! ! ! ! ! ! ! , 1           ",
"                2 , ! ! ! ! ! ! ! ! ~ ! ! ! ! ! ! ! ! ! ! ! ! ~ ! , 3           ",
"              4 ~ ! ! ! ! ! ! ! ! ! ! ! ! ! ! ! ! ! ! ! ! ! ! ! ! , 5 ,         ",
"            6 , , ! ! ! ! ! ! ! ! ! ! ! ! ! ! ! ! ! ! ! ! ! ! ! ! , ~           ",
"          7 , , ! ! ! ! ! ! ! ! ! ! ! ~ 8 ~ ! ! ! ! ! ! ! ! ! ! ! , , 9         ",
"          ! , 0 , ! ! ~ ! ! ! ! ~ ! ~ a   , , ! ! ! ! ! ! ! ~ ~ ! , , b         ",
"          ! , c d ! ! ! ! ! ! ! ! ~ e   f , , ~ ! ! ! ~ ! ! ! ! ~ ! g h         ",
"          ~ , ! ~ ! ! ! ! ! ! ! ~ i     ! , , ! ! ! ! ! ~ ! ! ! ~ ~ ~ j         ",
"          , ! ! ! ! ! ! ! ! ! ~ ~ k   l , , , ! ! ! ! ! ! ! ~ ~ ~ ~ ~ m         ",
"        n ~ ! ! ! ~ ~ ! ! ~ ~ o p     q , , r ! ! ! ! ! ~ ~ ~ ~ ! ! ~ s         ",
"        t ~ ~ ! ! ! ! ~ ~ u v         w , , ! ! ! ! ! ! ! ! ! ~ ~ ! ~ ~         ",
"          , ! ! ~ ! ~ x             y , , , ! ! ! ! ! ! ! ! ! ! ! ~ ~ ~ z       ",
"          A ! ~ ! ,                 B , , , ! ~ ! ! ! ! ! ! ! ~ ~ ! ~ ~ C       ",
"          D ! ! ! E                 , , , ! ! ! ! ! ! ! ~ ~ ~ ! ! ! ~ ~ F       ",
"          < ! ! ~ G                 , , , ! ! ~ ! ! ! ~ ~ ! ! ! ! ! ~ ~ H       ",
"          I ! ! ,                 J , , , ! ! ! ! ! ! ! ! ! ! ! ! ! ~ ~ K       ",
"        L ! ! ! M                 ! , , ! ! ! ~ ! ! ~ ! ! ! ! ! ! ~ ~ ~ N       ",
"        , ! ! O                   P , , ! ! ! ~ ! ! ! ! ~ ~ ~ ~ ~ ! ~ ~ Q       ",
"      R ! ~ ,                   S , , ! ! ! ! ! ! ! ! ~ ~ ~ ~ ~ ! ! ~ ~         ",
"      ~ ! ! T                   U , , ! ! ! ! ! ! ! ! ! ! ! ! ! ! ! ~ ~ V       ",
"    ~ ! ~ ~                   W , , , ! ! ! ! ~ ! ! ! ! ! ! ! ! ! ! ~ X         ",
"  Y , , ~ Z                   ` , , ! ! ~ ! ! ! ! ! ! ! ! ! ! ! ! ! ~  .        ",
"  .., , , +.                @.#., , ! ! ! ! ! ! ! ! ! ! ! ! ! ! ! ! ~ $.        ",
"    %.&.*.                  =., , ! ! ! ! ! ! ! ! ! ! ~ ~ ! ~ ~ ~ ~ ~ -.        ",
"                            ;., ! ! ! ! ! ! ! ~ ! ! ! ~ ~ ~ ~ ~ ~ ! ~ >.! ~     ",
"                            ~ ! ! ! ! ! ! ! ! ~ ! ! ! ! ! ! ! ! ! ! ~ ~ , , ,.  ",
"                            ~ ! ! ! ! ! ! ! ! ! ! ! ! ! ! ! ! ! ! ! ~ ! , , '.  ",
"                          ).! ! ! ! ! ! ! ! ! ! ! ! ! ! ! ! ! ! ! ~ ~ ! ! , !.  ",
"                          ~.! ! ! ! ! ! ! ! ! ! ! ! ! ! ! ~ ~ ~ ~ ~ ~ ! ! , {.  ",
"                          ].! ! ! ! ! ! ! ! ! ~ ! ! ! ~ ~ ~ ~ ! ! ~ ~ ~ , , ^.  ",
"                          , ~ ! ! ! ! ! ! ! ! ! ! ! ! ! ! ! ! ! ! ~ ~ , , , /.  ",
"                          ! ! ! ! ! ~ ! ! ! ~ ~ ! ! ! ! ! ! ! ! ! ~ ~ , , , (.  ",
"                        _.~ ! ! ! ! ! ! ! ! ! ~ ! ! ! ! ! ! ! ! ! ~ ~ ! , , :.  ",
"                        <.[.! ! ! ! ! ! ! ! ! ! ! ! ! ~ ~ ~ ~ ~ ~ ~ ~ ! ! ! }.  ",
"                        <.[.! ! ! ! ! ! ! ! ! ! ! ! ! ! ! ! ! ! ! ~ ~ ! ! ~ |.  ",
"                        1.~ ! ! ! ! ! ! ! ! ! ! ! ! ! ! ! ! ! ! ! ~ ~ ! , , 2.  ",
"                          , ! ! ! ! ! ! ! ! ! ~ ! ! ! ! ~ ! ! ! ! ~ ~ ~ , , 3.  ",
"                          4.! ! ! ! ! ! ! ! ! ! ! ! ! ! ! ! ! ! ! ~ ~ ~ , , 5.  ",
"                          6.! ! ! ! ! ! ~ ! ! ! ! ! ! ! ~ ~ ~ ~ ~ ~ ~ ~ ~ , 7.  ",
"                          8., , , ~ ! ! ! ! ! ! ! ! ! ~ ~ ~ ~ ~ ~ ! 9.0.a., b.  ",
"                            , , , , , , ! ! ! ! ! ! ! ! ! ! ! ! ! ! ~ c.  d.    ",
"                            e., , , , , , , ~ ! ! ! ! ! ~ ! ! ! ! ! ~ f.        ",
"                              g., , , , , , , , ! ! ! ! ! ! ! ! ! ~ ~ h.        ",
"                                  i., , , , , , , ! ! ! ! ~ ~ ~ ! ! ~ ~         ",
"                                    j., , , , , , , ! ! ! ! ! ! ! ! ! ~         ",
"                                      k., , , , , , , ~ ~ ! ! ! ! ! ! ~ l.      ",
"                                      m., , , , , , , , ! ! ! ! ! ! ~ ~ n.      ",
"                                        ! , , , , , , , ! ! ! ! ! ~ ~ ~ ~       ",
"                                        o., , , , , , , ! ! ~ ~ ~ ~ ! ! ~ p.    ",
"                                          q., , , , , , , ! ~ ~ ! ! ! ! ~ r.    ",
"                                            , , , , , , ! ! ! ! ! ! ! ! ~ s.    ",
"                                            t., , , , , ! ! ~ ! ! ~ ! ! ~ u.    ",
"                                              ! , , , ! ! ! ~ ! ! ! ! ! ~ v.    ",
"                                              w., , ! ! ! ! ~ ! ~ ~ ~ ~ ~ x.    ",
"                                                y., ! ~ ! ~ ~ ~ ~ ~ ! ! ~ z.    ",
"                                                A., ! ! ! ! ! ~ ! ! ! ! ~ B.!   ",
"                                C.D.E.F.          G.! ! ~ ! ! ! ! ! ! ! ~ H.!   ",
"                            I.J., ! ! ~ , K.        L.~ ! ! ~ ! ! ! ! ! ~ M.!   ",
"                          N.~ ~ ~ ! ~ ~ ! ! !         O.! ! ! ! ! ! ! ! ~ P.    ",
"                        Q.! ! ~ ~ ! ~ ! ! ! ~ R.      S.! ! ~ ~ ~ ~ ~ ~ ~ T.    ",
"                      U.~ ~ ~ ! ! ! ! ! ~ ! ~ ~ V.      ! ! ~ ! ~ ~ ~ ~ ~ W.    ",
"                      , ! ! ! ! ! , X.Y.~ ! ~ ! Z.      ;.! ! ! ! ! ! ~ ~ `.    ",
"                     +! ~ ! ~ ! .+        ].! ~ ,       ++~ ! ! ! ! ! ! @+      ",
"                    #+~ ~ ~ ! $+  %+      &+, ~ ~       ~ , ! ! ! ! ! ! *+      ",
"                    ! ! ! ! ~   =+-+        ;+~ ~       ! , ~ ~ ~ ~ ~ ~         ",
"                    , ~ ! ! >+  ,+~         '+! )+      ! , ! ! ~ ~ ~ !+        ",
"                    ~ ~ ~ ! ~+  {+~ ]+~ ! ~ ~ ,       ^+, , ! ~ ! ! ! /+        ",
"                    ~ ! ! ~ (+    _+! ! ! :+<+        [+, ! ! ! ~ ! ~ }+        ",
"                  |+~ ! ! , 1+                      2+3+, ~ ~ ~ ! ! 4+          ",
"                  5+~ ~ ~ , 6+                    7+8+, , ! ! ~ ~ ~ 9+          ",
"                  0+~ ~ ~ ! ~ a+                b+! , , ! ! ~ ! ~ c+            ",
"                    , ! ~ ! , , ! d+e+f+g+h+i+! , , , , ~ ~ ! ! j+              ",
"                    k+! ~ ~ ! , , , , , , , , , , , , ! ~ ~ ! ~ l+              ",
"                      , ~ ~ ! ! ~ ! , , , , , , , , ! ! ! ~ , m+                ",
"                        n+~ ! ~ ~ ~ ! ! ! ! ! ! ! ~ ~ ! ! ~                     ",
"                          o+p+! ~ ~ ! ~ ! ~ ! ! ~ ~ ~ ! q+                      ",
"                              r+s+t+! ! ~ ~ ~ ! ! , u+                          ",
"                                      v+w+x+y+z+A+                              ",
"                                                                                "};
