/* XPM */
static char * SeaStar_xpm[] = {
"32 32 3 1",
" 	c None",
".	c #A67171",
"+	c #DEA7A7",
"               .                ",
"               .                ",
"              .+.               ",
"              .+.               ",
"             .+++.              ",
"             .+.+.              ",
"            .++.++.             ",
"            .+...+.             ",
"           .+.....+.            ",
"           .+.....+.            ",
"          .+++...+++.           ",
"          .+.++.++.+.           ",
"++++++......+.+++.+......+++++++",
"  ++..++...+.+...+.+...++..++   ",
"    +...+..+++.+.+++..+...+     ",
"      +.++++.+...+.++++.+       ",
"        +.+.+.+++.+.+..         ",
"          ...++.++...           ",
"          ..++...++..           ",
"         ..++..+..++..          ",
"         ..++.+ +.++..          ",
"        ..++..+ +..++..         ",
"        .+++.+   +.+++.         ",
"       ..++..+   +.+++..        ",
"       ..+..+     +..+..        ",
"      .+....+     +....+.       ",
"      .+...+       +...+.       ",
"     +++...+       +...+++      ",
"     +.++.+         +.++.+      ",
"     +.++.+         +.++.+      ",
"     +...+           +...+      ",
"     +++++           +++++      "};
