/* XPM */
static char * Seaweed1_xpm[] = {
"22 96 3 1",
" 	c None",
".	c #85A665",
"+	c #AAC68E",
"        ......        ",
"        ......        ",
"        ..++..        ",
"        ..++..        ",
"      ....++..        ",
"      ....++..        ",
"      ....++..        ",
"      ....++..        ",
"      ....++..        ",
"      ....++..        ",
"      ....++..        ",
"      ....++..        ",
"      ....++....      ",
"      ....++....      ",
"      ....++....      ",
"      ....++....      ",
"      ....++....      ",
"      ....++....      ",
"      ....++....      ",
"      ....++....      ",
"      ....++....      ",
"      ....++....      ",
"      ....++....      ",
"      ....++....      ",
"        ..++....      ",
"        ..++....      ",
"        ..++....      ",
"        ..++....      ",
"        ..++....      ",
"        ..++....      ",
"        ..++......    ",
"        ..++......    ",
"        ..++++....    ",
"        ..++++....    ",
"      ......++....    ",
"      ......++....    ",
"      ......++....    ",
"      ......++....    ",
"      ......++....    ",
"      ......++....    ",
"      ......++++..    ",
"      ......++++..    ",
"      ......++....    ",
"      ......++....    ",
"      ......++....    ",
"      ......++....    ",
"      ....++....      ",
"      ....++....      ",
"      ....++....      ",
"      ....++....      ",
"    ....++++....      ",
"    ....++++....      ",
"    ....++....        ",
"    ....++....        ",
"    ....++....        ",
"    ....++....        ",
"    ....++....        ",
"    ....++....        ",
"  ......++....        ",
"  ......++....        ",
"  ....++++..          ",
"  ....++++..          ",
"  ....++....          ",
"  ....++....          ",
"  ....++....          ",
"  ....++....          ",
"  ....++....          ",
"  ....++....          ",
"  ....++......        ",
"  ....++......        ",
"  ....++......        ",
"  ....++......        ",
"  ....++++....        ",
"  ....++++....        ",
"  ......++....        ",
"  ......++....        ",
"    ....++..          ",
"    ....++..          ",
"    ....++....        ",
"    ....++....        ",
"    ....++....        ",
"    ....++....        ",
"    ....++....        ",
"    ....++....        ",
"    ......++....      ",
"    ......++....      ",
"    ......++....      ",
"    ......++....      ",
"    ......++....      ",
"    ......++....      ",
"    ......++....      ",
"    ......++....      ",
"    ......++....      ",
"    ......++....      ",
"    ......++......    ",
"    ......++......    "};
