/* XPM */
static char * SharkFinFlip_xpm[] = {
"13 10 4 1",
" 	c None",
".	c #000000",
"+	c #A384C2",
"@	c #C2A7DE",
"   .         ",
"   ..        ",
"  .....      ",
"  ..+...     ",
"  .++++..    ",
"  .++@@...   ",
" ..+@@@+...  ",
" ..++@@@+... ",
" .+++@@@@... ",
" .+++@@@@@+.."};
