/* XPM */
static char * SharkGlow_xpm[] = {
"175 80 3 1",
" 	c None",
".	c #FAFAAA",
"+	c #00000B",
"                                                                             ..                                                                                                ",
"                                                                             ...                                                                                               ",
"                                                                            ....                                                                                               ",
"                                                                          ......                                                                                               ",
"                                                                         .......                                                                                               ",
"                                                                        .........                                                                                              ",
"                                                                       ..........                                                                                              ",
"                                                                      ...........                                                                                              ",
"                                                                      ............                                                                                       ..    ",
"                                                                     .............                                                                                      ....   ",
"                                                                    ..............                                                                                     .....   ",
"                                                                    ..............                                                                                    ......   ",
"                                                                    ..............                                                                                   ......    ",
"                                                                   ...............                                                                                  .......    ",
"                                                                  ................                                                                                 .......     ",
"                                                                  ................                                                                                ........     ",
"                                                                 .................                                                                               ........      ",
"                                                                 .................                                                                              .........      ",
"                                                                ..................                                                                             ..........      ",
"                                                               ...................                                                                            ..........       ",
"                                                              .....................                                                                          ..........        ",
"                                                              ......................                                                                        ...........        ",
"                                                             ..........................  ....                                                              ...........         ",
"                                                           .......................................                                                        ............         ",
"                                                    .................................................                                                   .............          ",
"                                            ...............................................................                                            ..............          ",
"                                         .........................................................................              ..                     ..............          ",
"                                     ..................................................................................       .....                   ..............           ",
"                               ....................................................................................................                  ...............           ",
"                           .........................................................................................................                 ...............           ",
"                       ..............................................................................................................               ................           ",
"                     ..................................................................................................................             ...............            ",
"                  ...........................................................................................................................       ..............             ",
"              ...................................................................................................................................................              ",
"            .....................................................................................................................................................              ",
"         ........................................................................................................................................................              ",
"      ..........................................................................................................................................................               ",
"    ............................................................................................................................................................               ",
"  ..............................................................................................................................................................               ",
".................................................................................................................................................................              ",
".................................................................................................................................................................              ",
"...............................................................................................................................................      ..............            ",
"........................................................................................................................................             ...............           ",
"  ...................................................................................................................................                 ...............          ",
"    ................................................................................................................................+                 ................         ",
"      ...............................................................................................................................                 .................        ",
"        ..................................................................................................................  ........                   .................       ",
"              ......................................................................................................           .....                   ..................      ",
"               .....................................................................................................             ..                     ..................     ",
"                 ...................................................................................................                                      .................    ",
"                      .............................................................................................                                        .................   ",
"                         ............................................................................... ..........                                         ................   ",
"                            ........................................................................     ..........                                          ................. ",
"                                  ..............    ...................... ...........                    .........                                            ................",
"                                                     ....................                                  ........                                              ..............",
"                                                     ....................                                    ......                                                          ..",
"                                                     ....................                                     ....                                                             ",
"                                                      ...................                                       ..                                                             ",
"                                                      ..................                                                                                                       ",
"                                                      ..................                                                                                                       ",
"                                                      ..................                                                                                                       ",
"                                                      ..................                                                                                                       ",
"                                                      ..................                                                                                                       ",
"                                                      ..................                                                                                                       ",
"                                                       ..................                                                                                                      ",
"                                                       ..................                                                                                                      ",
"                                                        .................                                                                                                      ",
"                                                         ................                                                                                                      ",
"                                                         .................                                                                                                     ",
"                                                          ................                                                                                                     ",
"                                                           ...............                                                                                                     ",
"                                                            ..............                                                                                                     ",
"                                                             .............                                                                                                     ",
"                                                              ............                                                                                                     ",
"                                                              ............                                                                                                     ",
"                                                               ...........                                                                                                     ",
"                                                                 .........                                                                                                     ",
"                                                                  ........                                                                                                     ",
"                                                                    .....                                                                                                      ",
"                                                                     ....                                                                                                      "};
