/* XPM */
static char * SharkFlip_xpm[] = {
"175 80 5 1",
" 	c None",
".	c #000000",
"+	c #A384C2",
"@	c #C2A7DE",
"#	c #8565A6",
"                                                                                                .                                                                              ",
"                                                                                               ...                                                                             ",
"                                                                                               ....                                                                            ",
"                                                                                               ......                                                                          ",
"                                                                                               ..+....                                                                         ",
"                                                                                              ..++++...                                                                        ",
"                                                                                              ..++@@....                                                                       ",
"                                                                                              ..+@@@+...                                                                       ",
"                                                                                              ..++@@@+...                                                                      ",
"   ....                                                                                       .+++@@@@....                                                                     ",
"   .....                                                                                      .+++@@@@@+..                                                                     ",
"   ..++..                                                                                     .+++@@@@@++..                                                                    ",
"    ..++..                                                                                    .+++@@@@@@+..                                                                    ",
"    ..+++..                                                                                   .+++@@@@@@#+..                                                                   ",
"     ..+.+..                                                                                  .++#@@@@@@@+..                                                                   ",
"     ..++#+..                                                                                 .++#@@@@@@@++..                                                                  ",
"      ..+@#+..                                                                                .++#@@@@@@@@++..                                                                 ",
"      ..++@#+..                                                                               .++#@@@@@@@@++..                                                                 ",
"       .++@@@+..                                                                             ..++#@@@@@@@@+++..                                                                ",
"       ..+.@@@+..                                                                            ..+#@@@@@@@@@+++...                                                               ",
"        ..++@@#...                                                                          ..+.#@@@@@@@@@@+++..                                                               ",
"        ..++@@@#+..                                                                        ...+##@@@@@@@@@@#+++..                                                              ",
"         ..++@@@#+..                                                                     ...+++##@@@@@@@@@@#+++...                                                             ",
"         ..++@@@@#+..                                                         .............+++++##+@@@@@@@###+++...                                                            ",
"          .+++@@@@#+..                                                    ...............+++++++++###########++++.........                                                     ",
"          ...+#@@@##+..                                              ........++++++++++++++++++++++++++++++++++++..+..............                                             ",
"           ..+##@@@##+..                      .                 .........+++++++++++++++++++###+.++++++++++++++++++++++++++++.........                                         ",
"           ..++#@@@@##+..                    ....        ...........++++++++++++++++.###############+++++++++++++++++++++++++++++++......                                      ",
"           ..#+##@@@@#++.                   ..+.... .........+++++++++++++++++++.+########################+++.++++++++++++++++++++++++.........                                ",
"            .+++##@@@@#+..                 ..++++.......++++++++++++++++.##############################################++++++++++++++++++++........                            ",
"            ..++##@@@@#++.                 ..++....+++++++++++++++++#########################################################+.+++++++++++++++........                         ",
"            ..++##@@@@@#+..              .......+++++++++++++++.###################################################################+.++++++++++++++.......                     ",
"             ..++##@@@@#+..        .........++#++++++++++++#############################################################################+++++++++++++++......                  ",
"              ..+##@@@@@++...............++++.##############################################################################################++++++++++++++......               ",
"              ..++#@@@@@#+........++++++++++###############################################################################.+#+.##++#############+++++++++++++.....            ",
"               .++#@@@@@@#+++++++++++++#+++#############################################################################.+#+.+#.+#+.#################.++++++++++.....          ",
"               ..+#@@@@@@@@#.+++++######################################################################################+.+#+.#+.##.+###################.++++++++++.....       ",
"               ..+#@@@@@@@@@@#########################################################################################++#+.+#.+#.+#+.#########################++++++++.....    ",
"               ..+#@@@@@@@@@@@@@@@@@@@@@@+#############################################################################.+#+.+.+#.+#+.+###########################++++++++....  ",
"              ..++#@@@@@@....+@@@@@@@@@@@@@@@@##########################################################################.+#+.+.#+.##.+########################+.+##++++++++....",
"              ..++#@@@@+............++@@@@@@@@@@@########################################################################.+#.+.++.##+.########################...+#####.+++++..",
"             ..++##@@@++..       .........+@@@@@@@@@@#####################################################################.++...#.+#+.########################+..######@@@@@@..",
"           ...+++#@@@@++.              .......@@@@@@@@@@##################################################################+.#.+.#.+##.+############################@@@@@@@@+.. ",
"          ...++.##@@@.+..                 .@@@...@@@@@@@@@@@@@@@@@###################################+@@@@@@@@############+.+.+.+..##.+##################@@@@@@@@@@@@@@@@....  ",
"         ..++++##@@@@++..                  .@@@@....+@.@@@@@@@@@@@@@@@##########################@@@@@@@@@@@@@@@@@@#########.+.+.++.##.+###############@@@@@@@@@@@@@@@@@....    ",
"        ..++++##@@@@@++..                  .@@@@............@@@@@@@@@@@@@@@@@@@@@########@@@@@@@@@@@@@@@@@@@@@@@@@@@#######..++.++.##.+##########@@@@@@@@@@..++..........      ",
"       ..++++##@@@@@++..                   ..@+..         ...+@@@@@@@@@@@@@@@@@@@@@@@@@@@@@@@@@@@@@@@@@@@@@@@@@@@@@@@@#####+.+..+#.+#++###@@@@@@@@@@@@@@@@@@@@@.. ...          ",
"      ..++++#@@@@@@++..                     ....           .....@@@@@@@@@@@@@@@@@@@@@@@@@@@@@@@@@@@@@@@@@@@@@@@@@@@@@@#####+.+...#.+@.@@@@@@@@@@@@@@@@@@@@@.....               ",
"     ...+++.@@@@@@++...                      .             ..@@@+...@@@@@@@@@@@@@@@@@@@@@@@@@@@@@@@@@@@@@@@@.@@@@@@@@@@####+..@@@@@@@@@@@@@@@@@@@@@@@@@@@.......               ",
"    ...+++@@@@@@#++..                                       .@@@@@@+..#+@@@@@@@@@@@@@@@@@@@@@@@@@@@@@@@@@@..@@@@@@@@@@@#+@+@@@@@@@@@@@@@@@@@@@@@@@@@@@+.....                   ",
"   ...+++#@@@@++++..                                        ..@@@@@@@......+@@@@@@@@@@@@@@@@@@@@@@@@@@@@+..@@@@@@@@@@@@#++.@@@@@@@@@@@@@@@@@@@@@@@@@....                       ",
"   ..+++++.+++++...                                         ..@@@@@@#. ................+@@@@@@@@@@@.+...++@@@@@@@@@@@@@+++....@@@@@@@@@@@@@@+.........                         ",
"  ..+++++++++....                                           ..@@@@@@..      ...........................+##@@@@@@@@@@@@+++.........................                             ",
"................                                             .@@@@+..                     .......... ..++##@@@@@@@@@@@+++..     .............                                  ",
"............                                                 .@@@...                                  ..+##@@@@@@@@@@@++..                                                     ",
"..                                                          ..@...                                    ..+###@@@@@@@@@@++..                                                     ",
"                                                             ...                                      ..+###@@@@@@@@@@++..                                                     ",
"                                                                                                       ..+##@@@@@@@@@+++.                                                      ",
"                                                                                                       ..+##@@@@@@@@@+++.                                                      ",
"                                                                                                       ..+##@@@@@@@@+++..                                                      ",
"                                                                                                       ..+##@@@@@@@@+++..                                                      ",
"                                                                                                       ..+#@@@@@@@@@+++..                                                      ",
"                                                                                                       ..+#@@@@@@@@#+++..                                                      ",
"                                                                                                       ..+#@@@@@@@#+++..                                                       ",
"                                                                                                      ..+@#@@@@@@@#+++..                                                       ",
"                                                                                                      ..+.#@@@@@@##+++..                                                       ",
"                                                                                                      ..++#@@@@@##.++..                                                        ",
"                                                                                                      .++##@@@@###++..                                                         ",
"                                                                                                     ..++##@@@###+++..                                                         ",
"                                                                                                     ..++##@@###+++..                                                          ",
"                                                                                                     ..++######+++..                                                           ",
"                                                                                                     ..++#####+++..                                                            ",
"                                                                                                     ..+#####+++..                                                             ",
"                                                                                                     ..+####+++..                                                              ",
"                                                                                                     ..+####++..                                                               ",
"                                                                                                     ..+###++..                                                                ",
"                                                                                                     ..++.+...                                                                 ",
"                                                                                                     ..+++...                                                                  ",
"                                                                                                      .....                                                                    ",
"                                                                                                       ..                                                                      "};
