/* XPM */
static char * SharkFinGlow_xpm[] = {
"13 10 2 1",
" 	c None",
".	c #FAFAAA",
"         .   ",
"        ..   ",
"      .....  ",
"     ......  ",
"    .......  ",
"   ........  ",
"  .......... ",
" ........... ",
" ........... ",
"............ "};
